<svg width="20" height="20" viewBox="0 0 20 20" fill="none" xmlns="http://www.w3.org/2000/svg">
<g clip-path="url(#clip0_14189_27789)">
<path d="M17.5 10.625C17.182 14.475 13.932 17.5 10 17.5C8.01088 17.5 6.10322 16.7098 4.6967 15.3033C3.29018 13.8968 2.5 11.9891 2.5 10C2.5 6.06797 5.525 2.81797 9.375 2.5" stroke="#AFAFAF" stroke-width="1.5" stroke-linecap="round" stroke-linejoin="round"/>
<path d="M10 5.625V10H14.375" stroke="#AFAFAF" stroke-width="1.5" stroke-linecap="round" stroke-linejoin="round"/>
<path d="M12.5 3.4375C12.8452 3.4375 13.125 3.15768 13.125 2.8125C13.125 2.46732 12.8452 2.1875 12.5 2.1875C12.1548 2.1875 11.875 2.46732 11.875 2.8125C11.875 3.15768 12.1548 3.4375 12.5 3.4375Z" fill="#AFAFAF"/>
<path d="M15.3125 5.3125C15.6577 5.3125 15.9375 5.03268 15.9375 4.6875C15.9375 4.34232 15.6577 4.0625 15.3125 4.0625C14.9673 4.0625 14.6875 4.34232 14.6875 4.6875C14.6875 5.03268 14.9673 5.3125 15.3125 5.3125Z" fill="#AFAFAF"/>
<path d="M17.1875 8.125C17.5327 8.125 17.8125 7.84518 17.8125 7.5C17.8125 7.15482 17.5327 6.875 17.1875 6.875C16.8423 6.875 16.5625 7.15482 16.5625 7.5C16.5625 7.84518 16.8423 8.125 17.1875 8.125Z" fill="#AFAFAF"/>
</g>
<defs>
<clipPath id="clip0_14189_27789">
<rect width="20" height="20" fill="white"/>
</clipPath>
</defs>
</svg>
